# This file uses centimeters as units for non-parametric coordinates.

mtllib hoofdletter M.mtl
g default
v 1.853788 0.396931 0.957683
v 1.720262 0.396931 0.957683
v 1.720262 0.400536 1.636768
v 1.802855 0.400536 1.636768
v 1.802855 0.397596 1.082947
v 1.984561 0.400294 1.591352
v 2.077707 0.400294 1.591352
v 2.264919 0.397603 1.084319
v 2.264919 0.400536 1.636768
v 2.354851 0.400536 1.636768
v 2.354851 0.396931 0.957683
v 2.235553 0.396931 0.957683
v 2.041912 0.399720 1.483059
v 1.853788 0.431514 0.957499
v 1.720262 0.431514 0.957499
v 1.720262 0.435119 1.636584
v 1.802855 0.435119 1.636584
v 1.802855 0.432179 1.082763
v 1.984561 0.434878 1.591168
v 2.077707 0.434878 1.591168
v 2.264919 0.432186 1.084135
v 2.264919 0.435119 1.636584
v 2.354851 0.435119 1.636584
v 2.354851 0.431514 0.957499
v 2.235553 0.431514 0.957499
v 2.041912 0.434303 1.482875
v 1.853788 0.466097 0.957316
v 1.720262 0.466097 0.957316
v 1.720262 0.469702 1.636401
v 1.802855 0.469702 1.636401
v 1.802855 0.466762 1.082580
v 1.984561 0.469461 1.590984
v 2.077707 0.469461 1.590984
v 2.264919 0.466770 1.083952
v 2.264919 0.469702 1.636401
v 2.354851 0.469702 1.636401
v 2.354851 0.466097 0.957316
v 2.235553 0.466097 0.957316
v 2.041912 0.468886 1.482692
v 1.853788 0.500681 0.957132
v 1.720262 0.500681 0.957132
v 1.720262 0.504285 1.636217
v 1.802855 0.504285 1.636217
v 1.802855 0.501346 1.082396
v 1.984561 0.504044 1.590801
v 2.077707 0.504044 1.590801
v 2.264919 0.501353 1.083768
v 2.264919 0.504285 1.636217
v 2.354851 0.504285 1.636217
v 2.354851 0.500681 0.957132
v 2.235553 0.500681 0.957132
v 2.041912 0.503469 1.482508
v 1.853788 0.535264 0.956949
v 1.720262 0.535264 0.956949
v 1.720262 0.538868 1.636034
v 1.802855 0.538868 1.636034
v 1.802855 0.535929 1.082213
v 1.984561 0.538627 1.590617
v 2.077707 0.538627 1.590617
v 2.264919 0.535936 1.083585
v 2.264919 0.538868 1.636034
v 2.354851 0.538868 1.636034
v 2.354851 0.535264 0.956949
v 2.235553 0.535264 0.956949
v 2.041912 0.538053 1.482325
v 1.541721 0.465437 1.822677
v 2.541721 0.465437 1.822677
v 1.541721 0.460129 0.822691
v 2.541721 0.460129 0.822691
v 1.541721 -0.539857 0.827998
v 2.541721 -0.539857 0.827998
v 1.541721 -0.534549 1.827984
v 2.541721 -0.534549 1.827984
vt 0.417314 0.438676
vt 0.417314 0.001756
vt 0.439564 0.001756
vt 0.439564 0.438676
vt 0.461815 0.001756
vt 0.461815 0.438676
vt 0.484066 0.001756
vt 0.484066 0.438676
vt 0.506316 0.001756
vt 0.506316 0.438676
vt 0.583587 0.442667
vt 0.583587 0.798993
vt 0.561336 0.798993
vt 0.561336 0.442667
vt 0.539086 0.798993
vt 0.539086 0.442667
vt 0.516835 0.798993
vt 0.516835 0.442667
vt 0.494584 0.798993
vt 0.494584 0.442667
vt 0.114033 0.769772
vt 0.114033 0.442667
vt 0.136284 0.442667
vt 0.136284 0.769772
vt 0.158534 0.442667
vt 0.158534 0.769772
vt 0.180785 0.442667
vt 0.180785 0.769772
vt 0.203035 0.442667
vt 0.203035 0.769772
vt 0.107898 0.442667
vt 0.107898 0.768889
vt 0.085647 0.768889
vt 0.085647 0.442667
vt 0.063396 0.768889
vt 0.063396 0.442667
vt 0.041146 0.768889
vt 0.041146 0.442667
vt 0.018895 0.768889
vt 0.018895 0.442667
vt 0.399447 0.798110
vt 0.399447 0.442667
vt 0.421697 0.442667
vt 0.421697 0.798110
vt 0.443948 0.442667
vt 0.443948 0.798110
vt 0.466198 0.442667
vt 0.466198 0.798110
vt 0.488449 0.442667
vt 0.488449 0.798110
vt 0.601815 0.001756
vt 0.601815 0.438676
vt 0.579564 0.438676
vt 0.579564 0.001756
vt 0.557314 0.438676
vt 0.557314 0.001756
vt 0.535063 0.438676
vt 0.535063 0.001756
vt 0.512812 0.438676
vt 0.512812 0.001756
vt 0.304309 0.780692
vt 0.304309 0.442667
vt 0.326559 0.442667
vt 0.326559 0.780692
vt 0.348810 0.442667
vt 0.348810 0.780692
vt 0.371061 0.442667
vt 0.371061 0.780692
vt 0.393311 0.442667
vt 0.393311 0.780692
vt 0.298173 0.442667
vt 0.298173 0.780692
vt 0.275923 0.780692
vt 0.275923 0.442667
vt 0.253672 0.780692
vt 0.253672 0.442667
vt 0.231421 0.780692
vt 0.231421 0.442667
vt 0.209171 0.780692
vt 0.209171 0.442667
vt 0.087901 0.861884
vt 0.001992 0.861884
vt 0.001992 0.839633
vt 0.087901 0.839633
vt 0.001992 0.817382
vt 0.087901 0.817382
vt 0.001992 0.795132
vt 0.087901 0.795132
vt 0.001992 0.772881
vt 0.087901 0.772881
vt 0.095737 0.773764
vt 0.148876 0.773764
vt 0.148876 0.796014
vt 0.095737 0.796014
vt 0.148876 0.818265
vt 0.095737 0.818265
vt 0.148876 0.840516
vt 0.095737 0.840516
vt 0.148876 0.862766
vt 0.095737 0.862766
vt 0.156154 0.784683
vt 0.216083 0.784683
vt 0.216083 0.806934
vt 0.156154 0.806934
vt 0.216083 0.829184
vt 0.156154 0.829184
vt 0.216083 0.851435
vt 0.156154 0.851435
vt 0.216083 0.873686
vt 0.156154 0.873686
vt 0.222419 0.784683
vt 0.280280 0.784683
vt 0.280280 0.806934
vt 0.222419 0.806934
vt 0.280280 0.829184
vt 0.222419 0.829184
vt 0.280280 0.851435
vt 0.222419 0.851435
vt 0.280280 0.873686
vt 0.222419 0.873686
vt 0.363489 0.873686
vt 0.286734 0.873686
vt 0.286734 0.851435
vt 0.363489 0.851435
vt 0.286734 0.829184
vt 0.363489 0.829184
vt 0.286734 0.806934
vt 0.363489 0.806934
vt 0.286734 0.784683
vt 0.363489 0.784683
vt 0.208937 0.339780
vt 0.333523 0.001756
vt 0.410278 0.001756
vt 0.410278 0.438676
vt 0.352417 0.438676
vt 0.352417 0.083233
vt 0.231967 0.409455
vt 0.172038 0.409455
vt 0.055131 0.082350
vt 0.055131 0.438676
vt 0.001992 0.438676
vt 0.001992 0.001756
vt 0.087901 0.001756
vt 0.675631 0.879587
vt 0.589722 0.879587
vt 0.589722 0.442667
vt 0.642861 0.442667
vt 0.642861 0.798993
vt 0.759768 0.471888
vt 0.819697 0.471888
vt 0.940147 0.798110
vt 0.940147 0.442667
vt 0.998008 0.442667
vt 0.998008 0.879587
vt 0.921253 0.879587
vt 0.796668 0.541563
vt 0.375000 0.000000
vt 0.625000 0.000000
vt 0.625000 0.250000
vt 0.375000 0.250000
vt 0.625000 0.500000
vt 0.375000 0.500000
vt 0.625000 0.750000
vt 0.375000 0.750000
vt 0.625000 1.000000
vt 0.375000 1.000000
vt 0.875000 0.000000
vt 0.875000 0.250000
vt 0.125000 0.000000
vt 0.125000 0.250000
vn 0.000001 -0.999986 0.005307
vn 0.000001 -0.999986 0.005307
vn 0.000001 -0.999986 0.005307
vn 0.000001 -0.999986 0.005307
vn 0.000001 -0.999986 0.005307
vn 0.000001 -0.999986 0.005307
vn 0.000001 -0.999986 0.005307
vn 0.000001 -0.999986 0.005307
vn 0.000001 -0.999986 0.005307
vn 0.000001 -0.999986 0.005307
vn 0.000001 -0.999986 0.005307
vn 0.000001 -0.999986 0.005307
vn 0.000001 -0.999986 0.005307
vn 0.000000 -0.005307 -0.999986
vn 0.000000 -0.005307 -0.999986
vn 0.000000 -0.005307 -0.999986
vn 0.000000 -0.005307 -0.999986
vn -1.000000 0.000000 -0.000000
vn -1.000000 0.000000 -0.000000
vn -1.000000 0.000000 -0.000000
vn -1.000000 0.000000 -0.000000
vn 0.000000 0.005307 0.999986
vn 0.000000 0.005307 0.999986
vn 0.000000 0.005307 0.999986
vn 0.000000 0.005307 0.999986
vn 1.000000 0.000000 0.000000
vn 1.000000 0.000000 0.000000
vn 1.000000 0.000000 0.000000
vn 1.000000 0.000000 0.000000
vn -0.941667 0.001786 0.336542
vn -0.941667 0.001786 0.336542
vn -0.941666 0.001786 0.336544
vn -0.941666 0.001786 0.336544
vn 0.000000 0.005307 0.999986
vn 0.000000 0.005307 0.999986
vn 0.000000 0.005307 0.999986
vn 0.000000 0.005307 0.999986
vn 0.938097 0.001838 0.346367
vn 0.938097 0.001838 0.346367
vn 0.938098 0.001838 0.346364
vn 0.938098 0.001838 0.346364
vn -1.000000 0.000000 -0.000000
vn -1.000000 0.000000 -0.000000
vn -1.000000 0.000000 -0.000000
vn -1.000000 0.000000 -0.000000
vn 0.000000 0.005307 0.999986
vn 0.000000 0.005307 0.999986
vn 0.000000 0.005307 0.999986
vn 0.000000 0.005307 0.999986
vn 1.000000 0.000000 0.000000
vn 1.000000 0.000000 0.000000
vn 1.000000 0.000000 0.000000
vn 1.000000 0.000000 0.000000
vn 0.000000 -0.005307 -0.999986
vn 0.000000 -0.005307 -0.999986
vn 0.000000 -0.005307 -0.999986
vn 0.000000 -0.005307 -0.999986
vn -0.938298 -0.001835 -0.345823
vn -0.938298 -0.001835 -0.345823
vn -0.938298 -0.001835 -0.345823
vn -0.938298 -0.001835 -0.345823
vn 0.941465 -0.001789 -0.337106
vn 0.941465 -0.001789 -0.337106
vn 0.941465 -0.001789 -0.337106
vn 0.941465 -0.001789 -0.337106
vn 0.000000 -0.005307 -0.999986
vn 0.000000 -0.005307 -0.999986
vn -1.000000 0.000000 -0.000000
vn -1.000000 0.000000 -0.000000
vn 0.000000 0.005307 0.999986
vn 0.000000 0.005307 0.999986
vn 1.000000 0.000000 0.000000
vn 1.000000 0.000000 0.000000
vn -0.941665 0.001786 0.336546
vn -0.941665 0.001786 0.336546
vn 0.000000 0.005307 0.999986
vn 0.000000 0.005307 0.999986
vn 0.938098 0.001838 0.346364
vn 0.938098 0.001838 0.346364
vn -1.000000 0.000000 -0.000000
vn -1.000000 0.000000 -0.000000
vn 0.000000 0.005307 0.999986
vn 0.000000 0.005307 0.999986
vn 1.000000 0.000000 0.000000
vn 1.000000 0.000000 0.000000
vn 0.000000 -0.005307 -0.999986
vn 0.000000 -0.005307 -0.999986
vn -0.938298 -0.001835 -0.345823
vn -0.938298 -0.001835 -0.345823
vn 0.941465 -0.001789 -0.337106
vn 0.941465 -0.001789 -0.337106
vn 0.000000 -0.005307 -0.999986
vn 0.000000 -0.005307 -0.999986
vn -1.000000 0.000000 -0.000000
vn -1.000000 0.000000 -0.000000
vn 0.000000 0.005307 0.999986
vn 0.000000 0.005307 0.999986
vn 1.000000 0.000000 0.000000
vn 1.000000 0.000000 0.000000
vn -0.941665 0.001786 0.336546
vn -0.941665 0.001786 0.336546
vn 0.000000 0.005307 0.999986
vn 0.000000 0.005307 0.999986
vn 0.938097 0.001838 0.346367
vn 0.938097 0.001838 0.346367
vn -1.000000 0.000000 -0.000000
vn -1.000000 0.000000 -0.000000
vn 0.000000 0.005307 0.999986
vn 0.000000 0.005307 0.999986
vn 1.000000 0.000000 0.000000
vn 1.000000 0.000000 0.000000
vn 0.000000 -0.005307 -0.999986
vn 0.000000 -0.005307 -0.999986
vn -0.938298 -0.001835 -0.345823
vn -0.938298 -0.001835 -0.345823
vn 0.941465 -0.001789 -0.337106
vn 0.941465 -0.001789 -0.337106
vn 0.000000 -0.005307 -0.999986
vn 0.000000 -0.005307 -0.999986
vn -1.000000 0.000000 -0.000000
vn -1.000000 0.000000 -0.000000
vn 0.000000 0.005307 0.999986
vn 0.000000 0.005307 0.999986
vn 1.000000 0.000000 0.000000
vn 1.000000 0.000000 0.000000
vn -0.941665 0.001786 0.336546
vn -0.941665 0.001786 0.336546
vn 0.000000 0.005307 0.999986
vn 0.000000 0.005307 0.999986
vn 0.938097 0.001838 0.346367
vn 0.938097 0.001838 0.346367
vn -1.000000 0.000000 -0.000000
vn -1.000000 0.000000 -0.000000
vn 0.000000 0.005307 0.999986
vn 0.000000 0.005307 0.999986
vn 1.000000 0.000000 0.000000
vn 1.000000 0.000000 0.000000
vn 0.000000 -0.005307 -0.999986
vn 0.000000 -0.005307 -0.999986
vn -0.938298 -0.001835 -0.345823
vn -0.938298 -0.001835 -0.345823
vn 0.941465 -0.001789 -0.337106
vn 0.941465 -0.001789 -0.337106
vn -0.000002 0.999986 -0.005307
vn -0.000002 0.999986 -0.005307
vn -0.000002 0.999986 -0.005307
vn -0.000002 0.999986 -0.005307
vn -0.000002 0.999986 -0.005307
vn -0.000002 0.999986 -0.005307
vn -0.000002 0.999986 -0.005307
vn -0.000002 0.999986 -0.005307
vn -0.000002 0.999986 -0.005307
vn -0.000002 0.999986 -0.005307
vn -0.000002 0.999986 -0.005307
vn -0.000002 0.999986 -0.005307
vn -0.000002 0.999986 -0.005307
vn 0.000000 0.999986 -0.005307
vn 0.000000 0.999986 -0.005307
vn 0.000000 0.999986 -0.005307
vn 0.000000 0.999986 -0.005307
vn 0.000000 -0.005307 -0.999986
vn 0.000000 -0.005307 -0.999986
vn 0.000000 -0.005307 -0.999986
vn 0.000000 -0.005307 -0.999986
vn 0.000000 -0.999986 0.005307
vn 0.000000 -0.999986 0.005307
vn 0.000000 -0.999986 0.005307
vn 0.000000 -0.999986 0.005307
vn 0.000000 0.005307 0.999986
vn 0.000000 0.005307 0.999986
vn 0.000000 0.005307 0.999986
vn 0.000000 0.005307 0.999986
vn 1.000000 0.000000 0.000000
vn 1.000000 0.000000 0.000000
vn 1.000000 0.000000 0.000000
vn 1.000000 0.000000 0.000000
vn -1.000000 0.000000 -0.000000
vn -1.000000 0.000000 -0.000000
vn -1.000000 0.000000 -0.000000
vn -1.000000 0.000000 -0.000000
s off
g typeMesh3 group5
usemtl typeBlinnSG
f 13/131/1 12/132/2 11/133/3 10/134/4 9/135/5 8/136/6 7/137/7 6/138/8 5/139/9 4/140/10 3/141/11 2/142/12 1/143/13
s 1
f 1/81/14 2/82/15 15/83/16 14/84/17
s 2
f 2/1/18 3/2/19 16/3/20 15/4/21
s 3
f 3/91/22 4/92/23 17/93/24 16/94/25
s 4
f 4/11/26 5/12/27 18/13/28 17/14/29
s 5
f 5/21/30 6/22/31 19/23/32 18/24/33
s 6
f 6/101/34 7/102/35 20/103/36 19/104/37
s 7
f 7/31/38 8/32/39 21/33/40 20/34/41
s 8
f 8/41/42 9/42/43 22/43/44 21/44/45
s 9
f 9/111/46 10/112/47 23/113/48 22/114/49
s 10
f 10/51/50 11/52/51 24/53/52 23/54/53
s 11
f 11/121/54 12/122/55 25/123/56 24/124/57
s 12
f 12/61/58 13/62/59 26/63/60 25/64/61
s 13
f 13/71/62 1/72/63 14/73/64 26/74/65
s 1
f 14/84/17 15/83/16 28/85/66 27/86/67
s 2
f 15/4/21 16/3/20 29/5/68 28/6/69
s 3
f 16/94/25 17/93/24 30/95/70 29/96/71
s 4
f 17/14/29 18/13/28 31/15/72 30/16/73
s 5
f 18/24/33 19/23/32 32/25/74 31/26/75
s 6
f 19/104/37 20/103/36 33/105/76 32/106/77
s 7
f 20/34/41 21/33/40 34/35/78 33/36/79
s 8
f 21/44/45 22/43/44 35/45/80 34/46/81
s 9
f 22/114/49 23/113/48 36/115/82 35/116/83
s 10
f 23/54/53 24/53/52 37/55/84 36/56/85
s 11
f 24/124/57 25/123/56 38/125/86 37/126/87
s 12
f 25/64/61 26/63/60 39/65/88 38/66/89
s 13
f 26/74/65 14/73/64 27/75/90 39/76/91
s 1
f 27/86/67 28/85/66 41/87/92 40/88/93
s 2
f 28/6/69 29/5/68 42/7/94 41/8/95
s 3
f 29/96/71 30/95/70 43/97/96 42/98/97
s 4
f 30/16/73 31/15/72 44/17/98 43/18/99
s 5
f 31/26/75 32/25/74 45/27/100 44/28/101
s 6
f 32/106/77 33/105/76 46/107/102 45/108/103
s 7
f 33/36/79 34/35/78 47/37/104 46/38/105
s 8
f 34/46/81 35/45/80 48/47/106 47/48/107
s 9
f 35/116/83 36/115/82 49/117/108 48/118/109
s 10
f 36/56/85 37/55/84 50/57/110 49/58/111
s 11
f 37/126/87 38/125/86 51/127/112 50/128/113
s 12
f 38/66/89 39/65/88 52/67/114 51/68/115
s 13
f 39/76/91 27/75/90 40/77/116 52/78/117
s 1
f 40/88/93 41/87/92 54/89/118 53/90/119
s 2
f 41/8/95 42/7/94 55/9/120 54/10/121
s 3
f 42/98/97 43/97/96 56/99/122 55/100/123
s 4
f 43/18/99 44/17/98 57/19/124 56/20/125
s 5
f 44/28/101 45/27/100 58/29/126 57/30/127
s 6
f 45/108/103 46/107/102 59/109/128 58/110/129
s 7
f 46/38/105 47/37/104 60/39/130 59/40/131
s 8
f 47/48/107 48/47/106 61/49/132 60/50/133
s 9
f 48/118/109 49/117/108 62/119/134 61/120/135
s 10
f 49/58/111 50/57/110 63/59/136 62/60/137
s 11
f 50/128/113 51/127/112 64/129/138 63/130/139
s 12
f 51/68/115 52/67/114 65/69/140 64/70/141
s 13
f 52/78/117 40/77/116 53/79/142 65/80/143
s off
f 53/144/144 54/145/145 55/146/146 56/147/147 57/148/148 58/149/149 59/150/150 60/151/151 61/152/152 62/153/153 63/154/154 64/155/155 65/156/156
usemtl initialShadingGroup
f 66/157/157 67/158/158 69/159/159 68/160/160
f 68/160/161 69/159/162 71/161/163 70/162/164
f 70/162/165 71/161/166 73/163/167 72/164/168
f 72/164/169 73/163/170 67/165/171 66/166/172
f 67/158/173 73/167/174 71/168/175 69/159/176
f 72/169/177 66/157/178 68/160/179 70/170/180
