# This file uses centimeters as units for non-parametric coordinates.

mtllib letter r.mtl
g default
v -0.095696 -0.100184 1.763924
v -0.093317 0.899612 1.743875
v -0.099570 -0.120224 0.764132
v -0.097192 0.879573 0.744083
v 0.900419 -0.122680 0.760306
v 0.902798 0.877116 0.740257
v 0.904293 -0.102640 1.760098
v 0.906672 0.897156 1.740049
v 0.538225 0.760002 0.955031
v 0.480257 0.761566 0.964257
v 0.430007 0.763026 0.989116
v 0.387454 0.764383 1.029619
v 0.352611 0.765636 1.085767
v 0.350025 0.765002 0.972624
v 0.240802 0.767857 0.975104
v 0.254568 0.771230 1.577418
v 0.363790 0.768376 1.574937
v 0.354715 0.766152 1.177840
v 0.390524 0.764882 1.123125
v 0.430919 0.763588 1.083716
v 0.475891 0.762270 1.059591
v 0.525439 0.760928 1.050772
v 0.536681 0.760637 1.051107
v 0.548781 0.760332 1.052594
v 0.561737 0.760012 1.055255
v 0.575559 0.759676 1.059066
v 0.573227 0.759105 0.957009
v 0.564150 0.759335 0.956010
v 0.555294 0.759560 0.955336
v 0.546654 0.759783 0.955021
v 0.539310 0.801801 0.954772
v 0.481342 0.803364 0.963998
v 0.431094 0.804824 0.988857
v 0.388542 0.806181 1.029360
v 0.353696 0.807434 1.085508
v 0.351112 0.806801 0.972365
v 0.241887 0.809655 0.974845
v 0.255653 0.813029 1.577159
v 0.364877 0.810175 1.574679
v 0.355802 0.807950 1.177581
v 0.391609 0.806681 1.122866
v 0.432005 0.805387 1.083457
v 0.476977 0.804068 1.059332
v 0.526525 0.802726 1.050513
v 0.537769 0.802436 1.050848
v 0.549868 0.802131 1.052335
v 0.562823 0.801810 1.054996
v 0.576646 0.801475 1.058807
v 0.574312 0.800903 0.956750
v 0.565235 0.801133 0.955751
v 0.556381 0.801359 0.955077
v 0.547740 0.801581 0.954762
v 0.540397 0.843599 0.954513
v 0.482429 0.845163 0.963739
v 0.432179 0.846623 0.988598
v 0.389627 0.847979 1.029101
v 0.354783 0.849233 1.085249
v 0.352197 0.848599 0.972106
v 0.242975 0.851453 0.974586
v 0.256740 0.854827 1.576900
v 0.365963 0.851973 1.574420
v 0.356887 0.849749 1.177322
v 0.392697 0.848479 1.122607
v 0.433092 0.847185 1.083198
v 0.478064 0.845867 1.059073
v 0.527612 0.844524 1.050254
v 0.538854 0.844234 1.050590
v 0.550954 0.843929 1.052076
v 0.563910 0.843609 1.054737
v 0.577731 0.843273 1.058548
v 0.575399 0.842702 0.956491
v 0.566322 0.842931 0.955492
v 0.557469 0.843157 0.954818
v 0.548827 0.843380 0.954503
v 0.541483 0.885397 0.954254
v 0.483515 0.886961 0.963480
v 0.433267 0.888421 0.988339
v 0.390714 0.889778 1.028842
v 0.355869 0.891031 1.084990
v 0.353284 0.890398 0.971847
v 0.244060 0.893252 0.974327
v 0.257825 0.896625 1.576641
v 0.367050 0.893771 1.574160
v 0.357974 0.891547 1.177063
v 0.393782 0.890277 1.122348
v 0.434179 0.888984 1.082939
v 0.479149 0.887665 1.058814
v 0.528697 0.886323 1.049995
v 0.539941 0.886033 1.050330
v 0.552041 0.885728 1.051817
v 0.564995 0.885407 1.054478
v 0.578819 0.885072 1.058289
v 0.576485 0.884500 0.956232
v 0.567408 0.884730 0.955234
v 0.558554 0.884956 0.954560
v 0.549912 0.885178 0.954244
v 0.542570 0.927196 0.953995
v 0.484602 0.928760 0.963221
v 0.434352 0.930219 0.988080
v 0.391799 0.931576 1.028583
v 0.356956 0.932830 1.084731
v 0.354370 0.932196 0.971588
v 0.245147 0.935050 0.974068
v 0.258913 0.938424 1.576382
v 0.368135 0.935570 1.573902
v 0.359060 0.933345 1.176804
v 0.394869 0.932076 1.122089
v 0.435265 0.930782 1.082680
v 0.480237 0.929464 1.058555
v 0.529784 0.928121 1.049736
v 0.541027 0.927831 1.050071
v 0.553126 0.927526 1.051558
v 0.566082 0.927206 1.054219
v 0.579904 0.926870 1.058030
v 0.577572 0.926298 0.955973
v 0.568495 0.926528 0.954975
v 0.559641 0.926754 0.954300
v 0.551000 0.926977 0.953985
vt 0.375000 0.000000
vt 0.625000 0.000000
vt 0.375000 0.250000
vt 0.625000 0.250000
vt 0.375000 0.500000
vt 0.625000 0.500000
vt 0.375000 0.750000
vt 0.625000 0.750000
vt 0.375000 1.000000
vt 0.625000 1.000000
vt 0.875000 0.000000
vt 0.875000 0.250000
vt 0.125000 0.000000
vt 0.125000 0.250000
vt 0.280187 0.002157
vt 0.288033 0.002622
vt 0.296066 0.003417
vt 0.304295 0.004511
vt 0.304295 0.097280
vt 0.291812 0.093532
vt 0.280094 0.090848
vt 0.269129 0.089247
vt 0.258917 0.088710
vt 0.213705 0.095700
vt 0.172333 0.116691
vt 0.134802 0.151661
vt 0.101123 0.200632
vt 0.101123 0.561588
vt 0.001808 0.561588
vt 0.001808 0.014093
vt 0.101123 0.014093
vt 0.101123 0.116939
vt 0.133956 0.066646
vt 0.173469 0.030726
vt 0.219652 0.009178
vt 0.272525 0.001992
vt 0.748250 0.596981
vt 0.748250 0.649854
vt 0.710253 0.649854
vt 0.710253 0.596981
vt 0.748250 0.696037
vt 0.710253 0.696037
vt 0.748250 0.735550
vt 0.710253 0.735550
vt 0.748250 0.768383
vt 0.710253 0.768383
vt 0.487847 0.565211
vt 0.590692 0.565211
vt 0.590692 0.603208
vt 0.487847 0.603208
vt 0.482278 0.717200
vt 0.382963 0.717200
vt 0.382963 0.679203
vt 0.482278 0.679203
vt 0.621100 0.549488
vt 0.621100 0.001992
vt 0.659097 0.001992
vt 0.659097 0.549488
vt 0.278080 0.565211
vt 0.377395 0.565211
vt 0.377395 0.603208
vt 0.278080 0.603208
vt 0.905807 0.553110
vt 0.905807 0.914067
vt 0.867810 0.914067
vt 0.867810 0.553110
vt 0.905807 0.963038
vt 0.867810 0.963038
vt 0.905807 0.998008
vt 0.867810 0.998008
vt 0.140550 0.565211
vt 0.181921 0.565211
vt 0.181921 0.603208
vt 0.140550 0.603208
vt 0.227134 0.565211
vt 0.227134 0.603208
vt 0.237345 0.565211
vt 0.237345 0.603208
vt 0.248310 0.565211
vt 0.248310 0.603208
vt 0.260029 0.565211
vt 0.260029 0.603208
vt 0.272512 0.565211
vt 0.272512 0.603208
vt 0.042213 0.565211
vt 0.134981 0.565211
vt 0.134981 0.603208
vt 0.042213 0.603208
vt 0.748250 0.565211
vt 0.748250 0.573440
vt 0.710253 0.573440
vt 0.710253 0.565211
vt 0.748250 0.581473
vt 0.710253 0.581473
vt 0.748250 0.589320
vt 0.710253 0.589320
vt 0.672255 0.649854
vt 0.672255 0.596981
vt 0.672255 0.696037
vt 0.672255 0.735550
vt 0.672255 0.768383
vt 0.590692 0.641206
vt 0.487847 0.641206
vt 0.382963 0.641206
vt 0.482278 0.641206
vt 0.697094 0.001992
vt 0.697094 0.549488
vt 0.377395 0.641206
vt 0.278080 0.641206
vt 0.829813 0.914067
vt 0.829813 0.553110
vt 0.829813 0.963038
vt 0.829813 0.998008
vt 0.181921 0.641206
vt 0.140550 0.641206
vt 0.227134 0.641206
vt 0.237345 0.641206
vt 0.248310 0.641206
vt 0.260029 0.641206
vt 0.272512 0.641206
vt 0.134981 0.641206
vt 0.042213 0.641206
vt 0.672255 0.573440
vt 0.672255 0.565211
vt 0.672255 0.581473
vt 0.672255 0.589320
vt 0.634258 0.649854
vt 0.634258 0.596981
vt 0.634258 0.696037
vt 0.634258 0.735550
vt 0.634258 0.768383
vt 0.590692 0.679203
vt 0.487847 0.679203
vt 0.382963 0.603208
vt 0.482278 0.603208
vt 0.735091 0.001992
vt 0.735091 0.549488
vt 0.377395 0.679203
vt 0.278080 0.679203
vt 0.791816 0.914067
vt 0.791816 0.553110
vt 0.791816 0.963038
vt 0.791816 0.998008
vt 0.181921 0.679203
vt 0.140550 0.679203
vt 0.227134 0.679203
vt 0.237345 0.679203
vt 0.248310 0.679203
vt 0.260029 0.679203
vt 0.272512 0.679203
vt 0.134981 0.679203
vt 0.042213 0.679203
vt 0.634258 0.573440
vt 0.634258 0.565211
vt 0.634258 0.581473
vt 0.634258 0.589320
vt 0.596261 0.649854
vt 0.596261 0.596981
vt 0.596261 0.696037
vt 0.596261 0.735550
vt 0.596261 0.768383
vt 0.590692 0.717200
vt 0.487847 0.717200
vt 0.382963 0.565211
vt 0.482278 0.565211
vt 0.773089 0.001992
vt 0.773089 0.549488
vt 0.377395 0.717200
vt 0.278080 0.717200
vt 0.753818 0.914067
vt 0.753818 0.553110
vt 0.753818 0.963038
vt 0.753818 0.998008
vt 0.181921 0.717200
vt 0.140550 0.717200
vt 0.227134 0.717200
vt 0.237345 0.717200
vt 0.248310 0.717200
vt 0.260029 0.717200
vt 0.272512 0.717200
vt 0.134981 0.717200
vt 0.042213 0.717200
vt 0.596261 0.573440
vt 0.596261 0.565211
vt 0.596261 0.581473
vt 0.596261 0.589320
vt 0.582260 0.561588
vt 0.529386 0.554402
vt 0.483203 0.532854
vt 0.443690 0.496934
vt 0.410857 0.446642
vt 0.410857 0.549488
vt 0.311542 0.549488
vt 0.311542 0.001992
vt 0.410857 0.001992
vt 0.410857 0.362949
vt 0.444537 0.411919
vt 0.482067 0.446890
vt 0.523439 0.467880
vt 0.568652 0.474870
vt 0.578863 0.474333
vt 0.589828 0.472733
vt 0.601547 0.470048
vt 0.614029 0.466300
vt 0.614029 0.559069
vt 0.605800 0.560164
vt 0.597768 0.560959
vt 0.589921 0.561423
vn -0.999990 0.002455 0.003826
vn -0.999990 0.002455 0.003826
vn -0.999990 0.002455 0.003826
vn -0.999990 0.002455 0.003826
vn -0.003874 -0.020040 -0.999792
vn -0.003874 -0.020040 -0.999792
vn -0.003874 -0.020040 -0.999792
vn -0.003874 -0.020040 -0.999792
vn 0.999990 -0.002455 -0.003826
vn 0.999990 -0.002455 -0.003826
vn 0.999990 -0.002455 -0.003826
vn 0.999990 -0.002455 -0.003826
vn 0.003875 0.020040 0.999792
vn 0.003875 0.020040 0.999792
vn 0.003875 0.020040 0.999792
vn 0.003875 0.020040 0.999792
vn 0.002379 0.999796 -0.020049
vn 0.002379 0.999796 -0.020049
vn 0.002379 0.999796 -0.020049
vn 0.002379 0.999796 -0.020049
vn -0.002379 -0.999796 0.020049
vn -0.002379 -0.999796 0.020049
vn -0.002379 -0.999796 0.020049
vn -0.002379 -0.999796 0.020049
vn -0.025984 -0.999643 0.006190
vn -0.025984 -0.999643 0.006190
vn -0.025984 -0.999643 0.006190
vn -0.025984 -0.999643 0.006190
vn -0.025984 -0.999643 0.006190
vn -0.025984 -0.999643 0.006190
vn -0.025984 -0.999643 0.006190
vn -0.025984 -0.999643 0.006190
vn -0.025984 -0.999643 0.006190
vn -0.025984 -0.999643 0.006190
vn -0.025984 -0.999643 0.006190
vn -0.025984 -0.999643 0.006190
vn -0.025984 -0.999643 0.006190
vn -0.025984 -0.999643 0.006190
vn -0.025984 -0.999643 0.006190
vn -0.025984 -0.999643 0.006190
vn -0.025984 -0.999643 0.006190
vn -0.025984 -0.999643 0.006190
vn -0.025984 -0.999643 0.006190
vn -0.025984 -0.999643 0.006190
vn -0.025984 -0.999643 0.006190
vn -0.025984 -0.999643 0.006190
vn -0.137837 -0.002540 -0.990452
vn -0.300368 0.001906 -0.953822
vn -0.300371 0.001903 -0.953821
vn -0.137838 -0.002556 -0.990452
vn -0.575607 0.009907 -0.817667
vn -0.575602 0.009893 -0.817670
vn -0.780251 0.016388 -0.625251
vn -0.780248 0.016393 -0.625255
vn -0.849345 0.018756 -0.527504
vn -0.849342 0.018790 -0.527508
vn 0.999403 -0.026053 -0.022708
vn 0.999403 -0.026053 -0.022708
vn 0.999402 -0.026106 -0.022692
vn 0.999402 -0.026106 -0.022692
vn -0.022846 -0.005597 -0.999723
vn -0.022846 -0.005597 -0.999723
vn -0.022847 -0.005600 -0.999723
vn -0.022847 -0.005600 -0.999723
vn -0.999402 0.026095 0.022693
vn -0.999402 0.026095 0.022693
vn -0.999401 0.026129 0.022690
vn -0.999401 0.026129 0.022690
vn 0.022849 0.005598 0.999723
vn 0.022849 0.005598 0.999723
vn 0.022849 0.005600 0.999723
vn 0.022849 0.005600 0.999723
vn 0.999401 -0.026150 -0.022690
vn 0.999401 -0.026150 -0.022690
vn 0.999401 -0.026121 -0.022692
vn 0.999401 -0.026121 -0.022692
vn 0.836401 -0.018330 0.547811
vn 0.776892 -0.016276 0.629424
vn 0.776893 -0.016290 0.629422
vn 0.836401 -0.018330 0.547811
vn 0.596801 -0.010524 0.802320
vn 0.596805 -0.010546 0.802317
vn 0.329056 -0.002694 0.944307
vn 0.329058 -0.002704 0.944306
vn 0.138279 0.002539 0.990390
vn 0.138277 0.002528 0.990390
vn -0.077615 0.008196 0.996950
vn -0.077625 0.008164 0.996949
vn -0.163048 0.010370 0.986564
vn -0.163054 0.010355 0.986563
vn -0.234628 0.012138 0.972009
vn -0.234639 0.012135 0.972007
vn -0.265499 0.012888 0.964025
vn -0.265521 0.012883 0.964019
vn 0.999401 -0.026129 -0.022695
vn 0.999401 -0.026129 -0.022695
vn 0.999401 -0.026148 -0.022689
vn 0.999401 -0.026148 -0.022689
vn 0.109168 -0.009002 -0.993983
vn 0.092683 -0.008562 -0.995659
vn 0.092659 -0.008580 -0.995661
vn 0.109130 -0.009010 -0.993987
vn 0.056272 -0.007620 -0.998386
vn 0.056262 -0.007623 -0.998387
vn 0.017736 -0.006634 -0.999821
vn 0.017728 -0.006663 -0.999821
vn -0.300369 0.001906 -0.953821
vn -0.137834 -0.002561 -0.990452
vn -0.575603 0.009897 -0.817669
vn -0.780247 0.016409 -0.625256
vn -0.849340 0.018820 -0.527511
vn 0.999401 -0.026133 -0.022684
vn 0.999401 -0.026133 -0.022684
vn -0.022848 -0.005603 -0.999723
vn -0.022848 -0.005603 -0.999723
vn -0.999401 0.026131 0.022689
vn -0.999401 0.026131 0.022689
vn 0.022847 0.005602 0.999723
vn 0.022847 0.005602 0.999723
vn 0.999402 -0.026102 -0.022698
vn 0.999402 -0.026102 -0.022698
vn 0.776890 -0.016291 0.629426
vn 0.836402 -0.018340 0.547810
vn 0.596802 -0.010536 0.802320
vn 0.329053 -0.002699 0.944307
vn 0.138271 0.002539 0.990391
vn -0.077627 0.008178 0.996949
vn -0.163054 0.010328 0.986563
vn -0.234634 0.012111 0.972008
vn -0.265504 0.012862 0.964024
vn 0.999401 -0.026132 -0.022694
vn 0.999401 -0.026132 -0.022694
vn 0.092657 -0.008593 -0.995661
vn 0.109130 -0.009010 -0.993987
vn 0.056233 -0.007627 -0.998389
vn 0.017728 -0.006670 -0.999821
vn -0.300372 0.001903 -0.953820
vn -0.137835 -0.002541 -0.990452
vn -0.575601 0.009893 -0.817671
vn -0.780245 0.016420 -0.625258
vn -0.849339 0.018835 -0.527512
vn 0.999402 -0.026108 -0.022691
vn 0.999402 -0.026108 -0.022691
vn -0.022847 -0.005600 -0.999723
vn -0.022847 -0.005600 -0.999723
vn -0.999402 0.026103 0.022697
vn -0.999402 0.026103 0.022697
vn 0.022848 0.005597 0.999723
vn 0.022848 0.005597 0.999723
vn 0.999402 -0.026097 -0.022699
vn 0.999402 -0.026097 -0.022699
vn 0.776888 -0.016288 0.629428
vn 0.836401 -0.018350 0.547811
vn 0.596798 -0.010533 0.802322
vn 0.329060 -0.002700 0.944305
vn 0.138272 0.002561 0.990391
vn -0.077629 0.008223 0.996948
vn -0.163051 0.010342 0.986563
vn -0.234624 0.012100 0.972011
vn -0.265488 0.012840 0.964029
vn 0.999402 -0.026083 -0.022709
vn 0.999402 -0.026083 -0.022709
vn 0.092675 -0.008590 -0.995659
vn 0.109149 -0.009007 -0.993985
vn 0.056250 -0.007664 -0.998387
vn 0.017723 -0.006651 -0.999821
vn -0.300365 0.001893 -0.953822
vn -0.137838 -0.002532 -0.990452
vn -0.575605 0.009872 -0.817668
vn -0.780246 0.016420 -0.625257
vn -0.849337 0.018855 -0.527515
vn 0.999402 -0.026110 -0.022690
vn 0.999402 -0.026110 -0.022690
vn -0.022846 -0.005597 -0.999723
vn -0.022846 -0.005597 -0.999723
vn -0.999401 0.026105 0.022703
vn -0.999401 0.026105 0.022703
vn 0.022851 0.005591 0.999723
vn 0.022851 0.005591 0.999723
vn 0.999402 -0.026083 -0.022697
vn 0.999402 -0.026083 -0.022697
vn 0.776886 -0.016297 0.629431
vn 0.836400 -0.018351 0.547812
vn 0.596801 -0.010562 0.802320
vn 0.329059 -0.002716 0.944306
vn 0.138271 0.002562 0.990391
vn -0.077635 0.008220 0.996948
vn -0.163050 0.010369 0.986563
vn -0.234634 0.012111 0.972008
vn -0.265510 0.012835 0.964023
vn 0.999402 -0.026070 -0.022713
vn 0.999402 -0.026070 -0.022713
vn 0.092675 -0.008592 -0.995659
vn 0.109129 -0.009012 -0.993987
vn 0.056288 -0.007699 -0.998385
vn 0.017714 -0.006654 -0.999821
vn 0.025982 0.999643 -0.006193
vn 0.025982 0.999643 -0.006193
vn 0.025982 0.999643 -0.006193
vn 0.025982 0.999643 -0.006193
vn 0.025982 0.999643 -0.006193
vn 0.025982 0.999643 -0.006193
vn 0.025982 0.999643 -0.006193
vn 0.025982 0.999643 -0.006193
vn 0.025982 0.999643 -0.006193
vn 0.025982 0.999643 -0.006193
vn 0.025982 0.999643 -0.006193
vn 0.025982 0.999643 -0.006193
vn 0.025982 0.999643 -0.006193
vn 0.025982 0.999643 -0.006193
vn 0.025982 0.999643 -0.006193
vn 0.025982 0.999643 -0.006193
vn 0.025982 0.999643 -0.006193
vn 0.025982 0.999643 -0.006193
vn 0.025982 0.999643 -0.006193
vn 0.025982 0.999643 -0.006193
vn 0.025982 0.999643 -0.006193
vn 0.025982 0.999643 -0.006193
s off
g pCube44 group6
usemtl initialShadingGroup
f 1/1/1 2/2/2 4/4/3 3/3/4
f 3/3/5 4/4/6 6/6/7 5/5/8
f 5/5/9 6/6/10 8/8/11 7/7/12
f 7/7/13 8/8/14 2/10/15 1/9/16
f 2/2/17 8/11/18 6/12/19 4/4/20
f 7/13/21 1/1/22 3/3/23 5/14/24
usemtl typeBlinn4SG
f 30/15/25 29/16/26 28/17/27 27/18/28 26/19/29 25/20/30 24/21/31 23/22/32 22/23/33 21/24/34 20/25/35 19/26/36 18/27/37 17/28/38 16/29/39 15/30/40 14/31/41 13/32/42 12/33/43 11/34/44 10/35/45 9/36/46
s 1
f 9/37/47 10/38/48 32/39/49 31/40/50
f 10/38/48 11/41/51 33/42/52 32/39/49
f 11/41/51 12/43/53 34/44/54 33/42/52
f 12/43/53 13/45/55 35/46/56 34/44/54
s 2
f 13/47/57 14/48/58 36/49/59 35/50/60
s 3
f 14/51/61 15/52/62 37/53/63 36/54/64
s 4
f 15/55/65 16/56/66 38/57/67 37/58/68
s 5
f 16/59/69 17/60/70 39/61/71 38/62/72
s 6
f 17/63/73 18/64/74 40/65/75 39/66/76
s 7
f 18/64/77 19/67/78 41/68/79 40/65/80
f 19/67/78 20/69/81 42/70/82 41/68/79
f 20/71/81 21/72/83 43/73/84 42/74/82
f 21/72/83 22/75/85 44/76/86 43/73/84
f 22/75/85 23/77/87 45/78/88 44/76/86
f 23/77/87 24/79/89 46/80/90 45/78/88
f 24/79/89 25/81/91 47/82/92 46/80/90
f 25/81/91 26/83/93 48/84/94 47/82/92
s 8
f 26/85/95 27/86/96 49/87/97 48/88/98
s 1
f 27/89/99 28/90/100 50/91/101 49/92/102
f 28/90/100 29/93/103 51/94/104 50/91/101
f 29/93/103 30/95/105 52/96/106 51/94/104
f 30/95/105 9/37/47 31/40/50 52/96/106
f 31/40/50 32/39/49 54/97/107 53/98/108
f 32/39/49 33/42/52 55/99/109 54/97/107
f 33/42/52 34/44/54 56/100/110 55/99/109
f 34/44/54 35/46/56 57/101/111 56/100/110
s 2
f 35/50/60 36/49/59 58/102/112 57/103/113
s 3
f 36/54/64 37/53/63 59/104/114 58/105/115
s 4
f 37/58/68 38/57/67 60/106/116 59/107/117
s 5
f 38/62/72 39/61/71 61/108/118 60/109/119
s 6
f 39/66/76 40/65/75 62/110/120 61/111/121
s 7
f 40/65/80 41/68/79 63/112/122 62/110/123
f 41/68/79 42/70/82 64/113/124 63/112/122
f 42/74/82 43/73/84 65/114/125 64/115/124
f 43/73/84 44/76/86 66/116/126 65/114/125
f 44/76/86 45/78/88 67/117/127 66/116/126
f 45/78/88 46/80/90 68/118/128 67/117/127
f 46/80/90 47/82/92 69/119/129 68/118/128
f 47/82/92 48/84/94 70/120/130 69/119/129
s 8
f 48/88/98 49/87/97 71/121/131 70/122/132
s 1
f 49/92/102 50/91/101 72/123/133 71/124/134
f 50/91/101 51/94/104 73/125/135 72/123/133
f 51/94/104 52/96/106 74/126/136 73/125/135
f 52/96/106 31/40/50 53/98/108 74/126/136
f 53/98/108 54/97/107 76/127/137 75/128/138
f 54/97/107 55/99/109 77/129/139 76/127/137
f 55/99/109 56/100/110 78/130/140 77/129/139
f 56/100/110 57/101/111 79/131/141 78/130/140
s 2
f 57/103/113 58/102/112 80/132/142 79/133/143
s 3
f 58/105/115 59/104/114 81/134/144 80/135/145
s 4
f 59/107/117 60/106/116 82/136/146 81/137/147
s 5
f 60/109/119 61/108/118 83/138/148 82/139/149
s 6
f 61/111/121 62/110/120 84/140/150 83/141/151
s 7
f 62/110/123 63/112/122 85/142/152 84/140/153
f 63/112/122 64/113/124 86/143/154 85/142/152
f 64/115/124 65/114/125 87/144/155 86/145/154
f 65/114/125 66/116/126 88/146/156 87/144/155
f 66/116/126 67/117/127 89/147/157 88/146/156
f 67/117/127 68/118/128 90/148/158 89/147/157
f 68/118/128 69/119/129 91/149/159 90/148/158
f 69/119/129 70/120/130 92/150/160 91/149/159
s 8
f 70/122/132 71/121/131 93/151/161 92/152/162
s 1
f 71/124/134 72/123/133 94/153/163 93/154/164
f 72/123/133 73/125/135 95/155/165 94/153/163
f 73/125/135 74/126/136 96/156/166 95/155/165
f 74/126/136 53/98/108 75/128/138 96/156/166
f 75/128/138 76/127/137 98/157/167 97/158/168
f 76/127/137 77/129/139 99/159/169 98/157/167
f 77/129/139 78/130/140 100/160/170 99/159/169
f 78/130/140 79/131/141 101/161/171 100/160/170
s 2
f 79/133/143 80/132/142 102/162/172 101/163/173
s 3
f 80/135/145 81/134/144 103/164/174 102/165/175
s 4
f 81/137/147 82/136/146 104/166/176 103/167/177
s 5
f 82/139/149 83/138/148 105/168/178 104/169/179
s 6
f 83/141/151 84/140/150 106/170/180 105/171/181
s 7
f 84/140/153 85/142/152 107/172/182 106/170/183
f 85/142/152 86/143/154 108/173/184 107/172/182
f 86/145/154 87/144/155 109/174/185 108/175/184
f 87/144/155 88/146/156 110/176/186 109/174/185
f 88/146/156 89/147/157 111/177/187 110/176/186
f 89/147/157 90/148/158 112/178/188 111/177/187
f 90/148/158 91/149/159 113/179/189 112/178/188
f 91/149/159 92/150/160 114/180/190 113/179/189
s 8
f 92/152/162 93/151/161 115/181/191 114/182/192
s 1
f 93/154/164 94/153/163 116/183/193 115/184/194
f 94/153/163 95/155/165 117/185/195 116/183/193
f 95/155/165 96/156/166 118/186/196 117/185/195
f 96/156/166 75/128/138 97/158/168 118/186/196
s off
f 97/187/197 98/188/198 99/189/199 100/190/200 101/191/201 102/192/202 103/193/203 104/194/204 105/195/205 106/196/206 107/197/207 108/198/208 109/199/209 110/200/210 111/201/211 112/202/212 113/203/213 114/204/214 115/205/215 116/206/216 117/207/217 118/208/218
